<svg width="250" height="48" viewBox="0 0 250 48" fill="none" xmlns="http://www.w3.org/2000/svg">
<g clip-path="url(#clip0_1_122)">
<mask id="mask0_1_122" style="mask-type:luminance" maskUnits="userSpaceOnUse" x="0" y="0" width="250" height="48">
<path d="M249.998 0H0V47.0293H249.998V0Z" fill="white"/>
</mask>
<g mask="url(#mask0_1_122)">
<path d="M133.47 39.1417V7.88797H152.886V15.1471H141.566V39.1417H133.47Z" fill="#E30613"/>
<path d="M177.314 39.1417V26.9012H165.287V39.1417H157.19V7.88797H165.287V19.5517H177.314V7.88797H185.41V39.1417H177.314Z" fill="#E30613"/>
<path d="M232.395 39.1417V15.1471H222.939V7.88797H249.998V15.1471H240.495V39.1417H232.395Z" fill="#E30613"/>
<path d="M211.025 39.1375V21.3298L198.137 39.1375H191.367V7.8922H199.464V25.5146L212.135 7.8922H219.125V39.1375H211.025Z" fill="#E30613"/>
<path d="M86.9435 39.1417V20.5678L78.8599 30.3802L70.7766 20.5678V39.1417H62.6804V7.88797H70.6707L78.8599 18.6346L87.0495 7.88797H95.0395V39.1417H86.9435Z" fill="#E30613"/>
<path d="M110.41 28.1495H117.934L114.172 18.3501L110.41 28.1495ZM122.154 39.1373L120.459 34.7583H107.872L106.177 39.1373H98.0392L110.491 7.88767H117.977L130.432 39.1373H122.154Z" fill="#E30613"/>
<path d="M-0.00875854 14.2384C-0.000919431 10.4638 1.47828 6.84622 4.10497 4.17761C6.73165 1.50899 10.2918 0.00682543 14.0059 0H46.361V7.23758H14.0144C12.1894 7.2455 10.4413 7.9855 9.15044 9.29657C7.85959 10.6076 7.13036 12.3837 7.12145 14.2384L7.07907 26.3886C6.9314 27.9453 6.28057 29.4084 5.2282 30.5497C4.17586 31.6908 2.78127 32.4455 1.26222 32.6962L-0.00875854 32.8943V14.2384Z" fill="#E30613"/>
<path d="M-0.00694275 47.0293V39.7915H32.348C34.1735 39.7826 35.9215 39.0415 37.2123 37.7299C38.5029 36.418 39.2321 34.6415 39.241 32.7866V21.2563C39.2499 19.5835 39.8437 17.9684 40.9162 16.6994C41.9887 15.4304 43.4702 14.5901 45.0959 14.3287L46.3669 14.1349V32.7866C46.359 36.5616 44.88 40.1796 42.2533 42.8489C39.6269 45.5182 36.0668 47.0211 32.3522 47.0293H-0.00694275Z" fill="#E30613"/>
<path d="M27.4025 32.92V23.5641L23.1828 28.6834L18.9673 23.5641V32.92H13.3793V14.5096H18.6708L23.1828 20.4297L27.6948 14.5096H32.9863V32.92H27.4025Z" fill="#E30613"/>
</g>
</g>
<defs>
<clipPath id="clip0_1_122">
<rect width="249.998" height="47.0293" fill="white"/>
</clipPath>
</defs>
</svg>
